<svg style="background:#fff" class="dwg" font-family="monospace" viewBox="-33 -58 66 69" xmlns="http://www.w3.org/2000/svg" role="img" aria-label="View C"><line class="gl" x1="-32" y1="0" x2="32" y2="0"/><line class="gh" x1="-31" y1="0.3" x2="-32.6" y2="1.9"/><line class="gh" x1="-28.8" y1="0.3" x2="-30.4" y2="1.9"/><line class="gh" x1="-26.6" y1="0.3" x2="-28.2" y2="1.9"/><line class="gh" x1="-24.4" y1="0.3" x2="-26" y2="1.9"/><line class="gh" x1="-22.2" y1="0.3" x2="-23.8" y2="1.9"/><line class="gh" x1="-20" y1="0.3" x2="-21.6" y2="1.9"/><line class="gh" x1="-17.8" y1="0.3" x2="-19.4" y2="1.9"/><line class="gh" x1="-15.6" y1="0.3" x2="-17.2" y2="1.9"/><line class="gh" x1="-13.4" y1="0.3" x2="-15" y2="1.9"/><line class="gh" x1="-11.2" y1="0.3" x2="-12.8" y2="1.9"/><line class="gh" x1="-9" y1="0.3" x2="-10.6" y2="1.9"/><line class="gh" x1="-6.8" y1="0.3" x2="-8.4" y2="1.9"/><line class="gh" x1="-4.6" y1="0.3" x2="-6.2" y2="1.9"/><line class="gh" x1="-2.4" y1="0.3" x2="-4" y2="1.9"/><line class="gh" x1="-0.2" y1="0.3" x2="-1.8" y2="1.9"/><line class="gh" x1="2" y1="0.3" x2="0.4" y2="1.9"/><line class="gh" x1="4.2" y1="0.3" x2="2.6" y2="1.9"/><line class="gh" x1="6.4" y1="0.3" x2="4.8" y2="1.9"/><line class="gh" x1="8.6" y1="0.3" x2="7" y2="1.9"/><line class="gh" x1="10.8" y1="0.3" x2="9.2" y2="1.9"/><line class="gh" x1="13" y1="0.3" x2="11.4" y2="1.9"/><line class="gh" x1="15.2" y1="0.3" x2="13.6" y2="1.9"/><line class="gh" x1="17.4" y1="0.3" x2="15.8" y2="1.9"/><line class="gh" x1="19.6" y1="0.3" x2="18" y2="1.9"/><line class="gh" x1="21.8" y1="0.3" x2="20.2" y2="1.9"/><line class="gh" x1="24" y1="0.3" x2="22.4" y2="1.9"/><line class="gh" x1="26.2" y1="0.3" x2="24.6" y2="1.9"/><line class="gh" x1="28.4" y1="0.3" x2="26.8" y2="1.9"/><line class="gh" x1="30.6" y1="0.3" x2="29" y2="1.9"/><text class="gt" x="31" y="4.6">TABLE</text><path class="e hard" d="M-17.15 -10.7L-17.93 -12.09L-18.6 -13.53L-19.15 -15.02L-19.59 -16.55L-19.9 -18.11L-20.09 -19.69L-20.15 -21.28M-20.15 -21.28L-20.09 -22.85L-19.91 -24.4M-19.46 -26.52L-19.01 -27.96L-18.46 -29.35L-17.81 -30.7L-17.06 -32L-16.22 -33.24L-15.28 -34.41M-16.12 -4.16L-16.84 -4.24L-17.53 -4.47L-18.16 -4.85L-18.68 -5.35L-19.09 -5.96L-19.35 -6.63L-19.47 -7.35L-19.42 -8.08L-19.22 -8.78L-18.87 -9.42L-18.4 -9.97L-17.81 -10.4L-17.15 -10.7M-13.13 -6L-13.46 -5.48L-13.87 -5.02L-14.37 -4.66L-14.92 -4.38L-15.51 -4.22L-16.12 -4.16M-5.24 -1.82L-6.68 -2.27L-8.07 -2.82L-9.42 -3.47L-10.72 -4.22L-11.96 -5.06L-13.13 -6M-10.58 -38.43L-9.13 -39.24L-7.61 -39.94L-6.04 -40.5L-4.43 -40.94L-2.79 -41.24L-1.13 -41.4L0.54 -41.42L2.2 -41.31L3.85 -41.06M-17.12 -37.4L-17.04 -38.12L-16.81 -38.81L-16.43 -39.44L-15.93 -39.96L-15.32 -40.37L-14.65 -40.63L-13.93 -40.75L-13.2 -40.7L-12.5 -40.5L-11.86 -40.15L-11.31 -39.68L-10.88 -39.09L-10.58 -38.43M-15.28 -34.41L-15.8 -34.74L-16.26 -35.15L-16.62 -35.65L-16.9 -36.2L-17.06 -36.79L-17.12 -37.4M17.15 -31.86L18.02 -30.3L18.74 -28.67L19.32 -26.99L19.75 -25.26L20.03 -23.49L20.15 -21.71L20.1 -19.93L19.91 -18.16M16.12 -38.4L16.84 -38.32L17.53 -38.09L18.16 -37.71L18.68 -37.21L19.09 -36.6L19.35 -35.93L19.47 -35.21L19.42 -34.48L19.22 -33.78L18.87 -33.14L18.4 -32.59L17.81 -32.16L17.15 -31.86M13.13 -36.56L13.46 -37.08L13.87 -37.54L14.37 -37.9L14.92 -38.18L15.51 -38.34L16.12 -38.4M10.85 -38.26L12.02 -37.45L13.13 -36.56M19.46 -16.04L19.01 -14.6L18.46 -13.21L17.81 -11.86L17.06 -10.56L16.22 -9.32L15.28 -8.15M17.12 -5.16L17.04 -4.44L16.81 -3.75L16.43 -3.12L15.93 -2.6L15.32 -2.19L14.65 -1.93L13.93 -1.81L13.2 -1.86L12.5 -2.06L11.86 -2.41L11.31 -2.88L10.88 -3.47L10.58 -4.13M15.28 -8.15L15.8 -7.82L16.26 -7.41L16.62 -6.91L16.9 -6.36L17.06 -5.77L17.12 -5.16M10.58 -4.13L9.02 -3.26L7.39 -2.54L5.71 -1.96L3.98 -1.53L2.21 -1.25L0.43 -1.13L-1.35 -1.18L-3.12 -1.37M-15.84 -23.54L-19.94 -24.41M-12.84 -11.74L-13.66 -12.95L-14.36 -14.23L-14.94 -15.57L-15.4 -16.95L-15.73 -18.38L-15.93 -19.82L-15.99 -21.28M-15.99 -21.28L-15.95 -22.41L-15.84 -23.54M-15.11 -9.8L-12.84 -11.74M-16.12 -5.01L-16.74 -5.09L-17.32 -5.32L-17.83 -5.69L-18.23 -6.17L-18.5 -6.74L-18.62 -7.35L-18.58 -7.98L-18.38 -8.58L-18.05 -9.1L-17.59 -9.53L-17.04 -9.84L-16.43 -9.99L-15.81 -9.99L-15.2 -9.84L-14.65 -9.53L-14.19 -9.1L-13.86 -8.58L-13.66 -7.98L-13.62 -7.35L-13.74 -6.74L-14.01 -6.17L-14.41 -5.69L-14.92 -5.32L-15.5 -5.09L-16.12 -5.01M-11.43 -10.09L-13.7 -8.15M-4.38 -5.9L-5.69 -6.33L-6.96 -6.88L-8.18 -7.53L-9.33 -8.29L-10.42 -9.15L-11.43 -10.09M-5.25 -1.8L-4.38 -5.9M-19.94 -24.41L-19.48 -26.53M-19.48 -26.53L-15.38 -25.66M-15.38 -25.66L-14.95 -26.97L-14.4 -28.24L-13.75 -29.46L-12.99 -30.61L-12.13 -31.7L-11.19 -32.71M-11.19 -32.71L-13.13 -34.98M-16.27 -37.4L-16.19 -38.02L-15.96 -38.6L-15.59 -39.11L-15.11 -39.51L-14.54 -39.78L-13.93 -39.9L-13.3 -39.86L-12.7 -39.66L-12.18 -39.33L-11.75 -38.87L-11.44 -38.32L-11.29 -37.71L-11.29 -37.09L-11.44 -36.48L-11.75 -35.93L-12.18 -35.47L-12.7 -35.14L-13.3 -34.94L-13.93 -34.9L-14.54 -35.02L-15.11 -35.29L-15.59 -35.69L-15.96 -36.2L-16.19 -36.78L-16.27 -37.4M-11.48 -36.39L-9.54 -34.12M-9.54 -34.12L-8.24 -34.99L-6.86 -35.73L-5.41 -36.33L-3.91 -36.79L-2.37 -37.1L-0.81 -37.25L0.75 -37.26L2.31 -37.11L3.85 -36.8M10.85 -33.03L11.43 -32.47M11.43 -32.47L13.7 -34.41M16.12 -37.55L16.74 -37.47L17.32 -37.24L17.83 -36.87L18.23 -36.39L18.5 -35.82L18.62 -35.21L18.58 -34.58L18.38 -33.98L18.05 -33.46L17.59 -33.03L17.04 -32.72L16.43 -32.57L15.81 -32.57L15.2 -32.72L14.65 -33.03L14.19 -33.46L13.86 -33.98L13.66 -34.58L13.62 -35.21L13.74 -35.82L14.01 -36.39L14.41 -36.87L14.92 -37.24L15.5 -37.47L16.12 -37.55M15.11 -32.76L12.84 -30.82M12.84 -30.82L13.71 -29.52L14.45 -28.15L15.05 -26.71L15.5 -25.22L15.81 -23.69L15.97 -22.14L15.98 -20.58L15.84 -19.02M15.84 -19.02L19.94 -18.15M-22.5 0L22.5 0M-22.5 0L-22.5 -3M-22.5 -3L-8.48 -3M8.48 -3L11.21 -3M16.33 -3L22.5 -3M22.5 0L22.5 -3M10.22 -24.92L10.57 -23.73L10.78 -22.52M19.94 -18.15L19.48 -16.03M19.48 -16.03L15.38 -16.9M15.38 -16.9L14.95 -15.59L14.4 -14.32L13.75 -13.1L12.99 -11.95L12.13 -10.86L11.19 -9.85M11.19 -9.85L13.13 -7.58M11.48 -6.17L9.54 -8.44M9.54 -8.44L8.24 -7.57L6.87 -6.83L5.43 -6.23L3.94 -5.78L2.41 -5.47L0.86 -5.31L-0.7 -5.3L-2.26 -5.44M-2.26 -5.44L-3.13 -1.34M-3.13 -1.34L-5.25 -1.8M7.2 -21.28L7.6 -21.28L8 -21.28L8.39 -21.28L8.77 -21.28L9.13 -21.28L9.46 -21.28L9.77 -21.28L10.05 -21.28L10.28 -21.28L10.48 -21.28L10.64 -21.28L10.76 -21.28L10.83 -21.28L10.85 -21.28M16.27 -5.16L16.19 -4.54L15.96 -3.96L15.59 -3.45L15.11 -3.05L14.54 -2.78L13.93 -2.66L13.3 -2.7L12.7 -2.9L12.18 -3.23L11.75 -3.69L11.44 -4.24L11.29 -4.85L11.29 -5.47L11.44 -6.08L11.75 -6.63L12.18 -7.09L12.7 -7.42L13.3 -7.62L13.93 -7.66L14.54 -7.54L15.11 -7.27L15.59 -6.87L15.96 -6.36L16.19 -5.78L16.27 -5.16M-10.85 -21.28L-10.77 -22.59L-10.53 -23.88L-10.14 -25.13L-9.61 -26.32L-8.93 -27.44L-8.12 -28.48L-7.19 -29.4L-6.16 -30.21L-5.04 -30.89L-3.85 -31.43L-2.59 -31.82L-1.31 -32.05L0 -32.13L1.31 -32.05L2.6 -31.81L3.85 -31.42M10.85 -21.28L10.77 -19.97L10.53 -18.68L10.14 -17.43L9.61 -16.24L8.93 -15.12L8.12 -14.09L7.19 -13.16L6.16 -12.35L5.04 -11.67L3.85 -11.14L2.6 -10.75L1.31 -10.51L-0 -10.43L-1.31 -10.51L-2.6 -10.75L-3.85 -11.14L-5.04 -11.67L-6.16 -12.35L-7.19 -13.16L-8.12 -14.09L-8.93 -15.12L-9.61 -16.24L-10.14 -17.43L-10.53 -18.68L-10.77 -19.97L-10.85 -21.28M3.35 -46.4L3.45 -46.4L3.75 -46.4L4.22 -46.4L4.86 -46.4L5.61 -46.4L6.46 -46.4L7.35 -46.4L8.24 -46.4L9.09 -46.4L9.84 -46.4L10.48 -46.4L10.95 -46.4L11.25 -46.4L11.35 -46.4M3.35 -51.4L3.45 -51.4L3.75 -51.4L4.22 -51.4L4.86 -51.4L5.61 -51.4L6.46 -51.4L7.35 -51.4L8.24 -51.4L9.09 -51.4L9.84 -51.4L10.48 -51.4L10.95 -51.4L11.25 -51.4L11.35 -51.4M-7.2 -21.28L-7.12 -22.33L-6.89 -23.35L-6.52 -24.34L-6 -25.25L-5.36 -26.08L-4.61 -26.81L-3.75 -27.43L-2.82 -27.91L-1.82 -28.25L-0.79 -28.44L0.26 -28.48L1.31 -28.36L2.32 -28.09L3.29 -27.68L4.19 -27.14L5 -26.46L5.7 -25.68L6.28 -24.8L6.72 -23.85L7.03 -22.85L7.18 -21.81L7.18 -20.75L7.03 -19.71L6.72 -18.71L6.28 -17.76L5.7 -16.88L5 -16.1L4.19 -15.42L3.29 -14.88L2.32 -14.47L1.31 -14.2L0.26 -14.08L-0.79 -14.12L-1.82 -14.31L-2.82 -14.65L-3.75 -15.13L-4.61 -15.75L-5.36 -16.48L-6 -17.31L-6.52 -18.22L-6.89 -19.21L-7.12 -20.23L-7.2 -21.28"/><path class="e outline" d="M3.85 -46.4L3.85 -27.36M10.85 -46.4L10.85 -21.28M3.35 -51.4L3.35 -46.4M11.35 -51.4L11.35 -46.4"/><g class="ov"><line class="xl" x1="-20.15" y1="-21.98" x2="-20.15" y2="-48.4"/><line class="xl" x1="10.85" y1="-45.1" x2="10.85" y2="-48.4"/><line class="dl" x1="-20.15" y1="-47.4" x2="10.85" y2="-47.4"/><path class="ah" d="M-20.15 -47.4L-18.85 -47.85L-18.85 -46.95Z"/><path class="ah" d="M10.85 -47.4L9.55 -46.95L9.55 -47.85Z"/><g class="tag" data-id="C11" tabindex="0" role="button" aria-label="Dimension C11"><circle cx="-4.65" cy="-47.4" r="1.9"/><text x="-4.65" y="-47.4">C11</text></g><line class="xl" x1="-18.21" y1="-4.8" x2="-14.77" y2="-0.77"/><line class="xl" x1="19.12" y1="-36.69" x2="22.56" y2="-32.66"/><line class="dl" x1="-15.42" y1="-1.53" x2="21.91" y2="-33.42"/><path class="ah" d="M-15.42 -1.53L-14.72 -2.72L-14.14 -2.04Z"/><path class="ah" d="M21.91 -33.42L21.22 -32.24L20.63 -32.92Z"/><g class="tag" data-id="C5" tabindex="0" role="button" aria-label="Dimension C5"><circle cx="3.25" cy="-17.48" r="1.9"/><text x="3.25" y="-17.48">C5</text></g><circle class="dot" cx="-16.62" cy="-39.07" r="0.35"/><line class="ld" x1="-16.62" y1="-39.07" x2="-26.15" y2="-42.4"/><g class="tag" data-id="C6" tabindex="0" role="button" aria-label="Dimension C6"><circle cx="-26.15" cy="-42.4" r="1.9"/><text x="-26.15" y="-42.4">C6</text></g><line class="xl" x1="-16.82" y1="-10.01" x2="-28.15" y2="-10.01"/><line class="dl" x1="-27.15" y1="0" x2="-27.15" y2="-10.01"/><path class="ah" d="M-27.15 0L-27.6 -1.3L-26.7 -1.3Z"/><path class="ah" d="M-27.15 -10.01L-26.7 -8.71L-27.6 -8.71Z"/><g class="tag" data-id="C7" tabindex="0" role="button" aria-label="Dimension C7"><circle cx="-27.15" cy="-5.01" r="1.9"/><text x="-27.15" y="-5.01">C7</text></g><line class="xl" x1="14.47" y1="-7.66" x2="28.15" y2="-7.66"/><line class="dl" x1="27.15" y1="0" x2="27.15" y2="-7.66"/><path class="ah" d="M27.15 0L26.7 -1.3L27.6 -1.3Z"/><path class="ah" d="M27.15 -7.66L27.6 -6.36L26.7 -6.36Z"/><g class="tag" data-id="C8" tabindex="0" role="button" aria-label="Dimension C8"><circle cx="27.15" cy="-3.83" r="1.9"/><text x="27.15" y="-3.83">C8</text></g><circle class="dot" cx="-17.45" cy="-31.35" r="0.35"/><line class="ld" x1="-17.45" y1="-31.35" x2="-29.15" y2="-33.28"/><g class="tag" data-id="C1" tabindex="0" role="button" aria-label="Dimension C1"><circle cx="-29.15" cy="-33.28" r="1.9"/><text x="-29.15" y="-33.28">C1</text></g><circle class="dot" cx="-17.11" cy="-24.92" r="0.35"/><line class="ld" x1="-17.11" y1="-24.92" x2="-29.15" y2="-27.28"/><g class="tag" data-id="C9" tabindex="0" role="button" aria-label="Dimension C9"><circle cx="-29.15" cy="-27.28" r="1.9"/><text x="-29.15" y="-27.28">C9</text></g><circle class="dot" cx="-6.95" cy="-19.42" r="0.35"/><line class="ld" x1="-6.95" y1="-19.42" x2="-29.15" y2="-21.28"/><g class="tag" data-id="C4" tabindex="0" role="button" aria-label="Dimension C4"><circle cx="-29.15" cy="-21.28" r="1.9"/><text x="-29.15" y="-21.28">C4</text></g><circle class="dot" cx="17.11" cy="-17.64" r="0.35"/><line class="ld" x1="17.11" y1="-17.64" x2="29.15" y2="-18.28"/><g class="tag" data-id="C10" tabindex="0" role="button" aria-label="Dimension C10"><circle cx="29.15" cy="-18.28" r="1.9"/><text x="29.15" y="-18.28">C10</text></g><circle class="dot" cx="-5.47" cy="-6.25" r="0.35"/><line class="ld" x1="-5.47" y1="-6.25" x2="-8" y2="5"/><g class="tag" data-id="C2" tabindex="0" role="button" aria-label="Dimension C2"><circle cx="-8" cy="5" r="1.9"/><text x="-8" y="5">C2</text></g><circle class="dot" cx="4.06" cy="-11.22" r="0.35"/><line class="ld" x1="4.06" y1="-11.22" x2="6" y2="5"/><g class="tag" data-id="C3" tabindex="0" role="button" aria-label="Dimension C3"><circle cx="6" cy="5" r="1.9"/><text x="6" y="5">C3</text></g><circle class="dot" cx="11.35" cy="-49.4" r="0.35"/><line class="ld" x1="11.35" y1="-49.4" x2="18.35" y2="-52.4"/><g class="tag" data-id="C12" tabindex="0" role="button" aria-label="Dimension C12"><circle cx="18.35" cy="-52.4" r="1.9"/><text x="18.35" y="-52.4">C12</text></g><circle class="dot" cx="10.85" cy="-42.4" r="0.35"/><line class="ld" x1="10.85" y1="-42.4" x2="18.35" y2="-42.4"/><g class="tag" data-id="C13" tabindex="0" role="button" aria-label="Dimension C13"><circle cx="18.35" cy="-42.4" r="1.9"/><text x="18.35" y="-42.4">C13</text></g><circle class="dot" cx="-11.27" cy="-37.4" r="0.35"/><line class="ld" x1="-11.27" y1="-37.4" x2="-6" y2="-52.4"/><g class="tag" data-id="C14" tabindex="0" role="button" aria-label="Dimension C14"><circle cx="-6" cy="-52.4" r="1.9"/><text x="-6" y="-52.4">C14</text></g><circle class="dot" cx="17.87" cy="-36.05" r="0.35"/><line class="ld" x1="17.87" y1="-36.05" x2="29.15" y2="-38.05"/><g class="tag" data-id="C15" tabindex="0" role="button" aria-label="Dimension C15"><circle cx="29.15" cy="-38.05" r="1.9"/><text x="29.15" y="-38.05">C15</text></g></g></svg>